# Blender v2.78 (sub 0) OBJ File: ''
# www.blender.org
mtllib azureblue.mtl
o Plane
v -0.555822 1.672235 -0.000001
v 0.556082 1.673468 -0.000001
v 0.556515 2.229464 0.000000
v -1.665672 2.786045 0.000000
v -1.113573 3.342355 0.000001
v -1.665372 3.341753 0.000001
v -0.000661 0.008540 -0.000001
v -0.000661 1.120703 -0.000001
v -0.555805 0.008540 -0.000001
v -0.555402 2.784950 -0.000001
v -1.664469 1.672825 -0.000001
v -0.001232 2.784950 0.000000
v 0.556515 1.120503 -0.000001
v 1.113377 2.228599 0.000000
v 1.112944 1.672170 -0.000001
v 0.556082 3.343188 0.000001
v -0.001232 3.339121 -0.000000
v 1.112944 3.895288 0.000001
v 1.112511 3.342322 0.000001
v 1.664610 5.007280 0.000001
v 1.664610 3.893989 0.000001
v 0.556045 4.450344 0.000001
v 0.556045 5.007495 0.000001
v -0.555402 3.339119 0.000001
v -0.000385 4.450704 0.000001
v 0.555684 5.563563 0.000001
v -0.000024 5.563563 0.000001
v 0.555684 5.007134 0.000001
v -0.000385 5.007494 0.000001
v -1.113874 4.451365 0.000001
v -2.222281 3.342655 0.000001
v -2.778590 4.450461 0.000001
v -2.777989 3.342654 0.000001
v -2.221380 2.785443 0.000000
v -0.556814 5.563562 0.000001
v -0.557175 6.121074 0.000001
v -0.000024 6.119993 0.000001
v -1.664982 4.450702 0.000001
v -1.665343 5.563922 0.000001
v -1.665370 4.450763 0.000001
v 2.228800 3.340731 -0.000059
v 1.113970 3.340731 -0.000059
v 1.113970 2.225901 -0.000060
v 2.228800 2.225901 -0.000060
vt 0.4445 0.1668
vt 0.5555 0.1669
vt 0.5556 0.2224
vt 0.3336 0.2780
vt 0.3887 0.3336
vt 0.3336 0.3336
vt 0.4999 0.0002
vt 0.4999 0.1116
vt 0.4445 0.0002
vt 0.4445 0.2779
vt 0.3337 0.1668
vt 0.4999 0.2779
vt 0.5556 0.1116
vt 0.6112 0.2223
vt 0.6112 0.1667
vt 0.5555 0.3337
vt 0.4999 0.3333
vt 0.6112 0.3889
vt 0.6111 0.3336
vt 0.6663 0.5000
vt 0.6663 0.3887
vt 0.5555 0.4443
vt 0.5555 0.5000
vt 0.4445 0.3333
vt 0.4999 0.4444
vt 0.5555 0.5556
vt 0.5000 0.5556
vt 0.5555 0.5000
vt 0.4999 0.5000
vt 0.3887 0.4444
vt 0.2779 0.3337
vt 0.2224 0.4443
vt 0.2224 0.3337
vt 0.2780 0.2780
vt 0.4444 0.5556
vt 0.4443 0.6113
vt 0.5000 0.6112
vt 0.3336 0.4444
vt 0.3336 0.5556
vt 0.3336 0.4444
vt 0.7227 0.3335
vt 0.6113 0.3335
vt 0.6113 0.2221
vt 0.7227 0.2221
vn -0.0000 -0.0000 1.0000
usemtl None_azurebluet.jpg
s 1
f 1/1/1 2/2/1 3/3/1
f 4/4/1 5/5/1 6/6/1
f 7/7/1 8/8/1 9/9/1
f 1/1/1 10/10/1 11/11/1
f 10/10/1 1/1/1 12/12/1
f 11/11/1 10/10/1 4/4/1
f 8/8/1 1/1/1 9/9/1
f 2/2/1 8/8/1 13/13/1
f 14/14/1 2/2/1 15/15/1
f 1/1/1 3/3/1 12/12/1
f 3/3/1 2/2/1 14/14/1
f 2/2/1 1/1/1 8/8/1
f 16/16/1 12/12/1 3/3/1
f 16/16/1 17/17/1 12/12/1
f 18/18/1 16/16/1 19/19/1
f 20/20/1 18/18/1 21/21/1
f 22/22/1 20/20/1 23/23/1
f 22/22/1 18/18/1 20/20/1
f 18/18/1 22/22/1 16/16/1
f 24/24/1 5/5/1 10/10/1
f 16/16/1 25/25/1 17/17/1
f 25/25/1 16/16/1 22/22/1
f 26/26/1 27/27/1 28/28/1
f 25/25/1 24/24/1 17/17/1
f 27/27/1 29/29/1 28/28/1
f 29/29/1 30/30/1 25/25/1
f 10/10/1 5/5/1 4/4/1
f 31/31/1 32/32/1 33/33/1
f 4/4/1 6/6/1 34/34/1
f 27/27/1 35/35/1 29/29/1
f 36/36/1 35/35/1 37/37/1
f 38/38/1 30/30/1 39/39/1
f 35/35/1 27/27/1 37/37/1
f 31/31/1 40/40/1 32/32/1
f 31/31/1 6/6/1 40/40/1
f 35/35/1 30/30/1 29/29/1
f 30/30/1 35/35/1 39/39/1
f 5/5/1 24/24/1 30/30/1
f 34/34/1 6/6/1 31/31/1
f 30/30/1 24/24/1 25/25/1
f 41/41/1 42/42/1 43/43/1
f 41/41/1 43/43/1 44/44/1
