# Blender v2.78 (sub 0) OBJ File: ''
# www.blender.org
mtllib fern.mtl
o Plane_Plane.001
v 2.769552 1.664011 -0.000001
v 2.225383 2.208181 -0.000000
v 2.225383 1.664011 -0.000001
v -2.224620 1.660349 -0.000001
v -2.768790 2.204520 -0.000000
v -2.768790 1.660349 -0.000001
v 2.769552 2.208181 -0.000000
v -2.224620 2.204520 -0.000000
v -1.111503 7.208412 0.000000
v 0.551124 7.769604 0.000000
v -0.555548 8.320321 0.000001
v 0.555611 0.004795 -0.000002
v -0.552395 2.208043 -0.000001
v -0.552395 0.004795 -0.000002
v -1.665959 3.320470 -0.000000
v -2.220418 2.211555 -0.000001
v -2.224159 2.768257 -0.000000
v -2.777120 3.323463 -0.000000
v -2.778617 2.766760 -0.000000
v 0.555611 2.208043 -0.000001
v -1.666708 3.878669 -0.000000
v -2.223411 4.434625 -0.000000
v -2.776372 3.877922 -0.000000
v 2.218369 2.212219 -0.000001
v 1.663521 3.320051 -0.000000
v 2.220230 3.321913 -0.000000
v 2.220484 4.433127 -0.000000
v 1.666025 4.432378 -0.000000
v 2.221980 3.878669 -0.000000
v 1.663521 3.878622 -0.000000
v -2.777121 4.434625 -0.000000
v 1.662285 6.098746 0.000000
v 1.113065 6.098746 0.000000
v 0.554865 7.210655 0.000000
v 1.107078 7.210655 0.000000
v -1.665961 5.542045 0.000000
v -2.221915 5.548030 0.000000
v -1.668206 6.099495 0.000000
v -1.665961 6.654701 0.000000
v -2.221167 6.099495 0.000000
v -2.220419 6.659191 0.000000
v 1.107827 8.321070 0.000001
v 1.109323 7.768857 0.000000
v -0.001090 8.323315 0.000001
v -1.665213 7.212901 0.000000
v -0.554051 8.879269 0.000001
v -0.003335 8.877771 0.000001
v -1.110754 8.323315 0.000001
vt 0.7786 0.1666
vt 0.7239 0.2213
vt 0.7239 0.1666
vt 0.2769 0.1663
vt 0.2222 0.2209
vt 0.2222 0.1663
vt 0.7786 0.2213
vt 0.2769 0.2209
vt 0.3887 0.7236
vt 0.5557 0.7799
vt 0.4445 0.8353
vt 0.5562 -0.0000
vt 0.4449 0.2213
vt 0.4449 -0.0000
vt 0.3330 0.3330
vt 0.2773 0.2216
vt 0.2769 0.2776
vt 0.2214 0.3333
vt 0.2212 0.2774
vt 0.5562 0.2213
vt 0.3329 0.3891
vt 0.2770 0.4449
vt 0.2215 0.3890
vt 0.7232 0.2217
vt 0.6674 0.3330
vt 0.7234 0.3332
vt 0.7234 0.4448
vt 0.6677 0.4447
vt 0.7235 0.3891
vt 0.6674 0.3891
vt 0.2214 0.4449
vt 0.6673 0.6121
vt 0.6122 0.6121
vt 0.5561 0.7238
vt 0.6116 0.7238
vt 0.3330 0.5562
vt 0.2772 0.5568
vt 0.3328 0.6122
vt 0.3330 0.6680
vt 0.2772 0.6122
vt 0.2773 0.6684
vt 0.6116 0.8353
vt 0.6118 0.7799
vt 0.5002 0.8356
vt 0.3331 0.7240
vt 0.4447 0.8914
vt 0.5000 0.8913
vt 0.3888 0.8356
vn 0.0000 -0.0000 1.0000
usemtl Material.001
s 1
f 1/1/1 2/2/1 3/3/1
f 4/4/1 5/5/1 6/6/1
f 1/1/1 7/7/1 2/2/1
f 4/4/1 8/8/1 5/5/1
f 9/9/1 10/10/1 11/11/1
f 12/12/1 13/13/1 14/14/1
f 13/13/1 15/15/1 16/16/1
f 17/17/1 18/18/1 19/19/1
f 17/17/1 15/15/1 18/18/1
f 20/20/1 13/13/1 12/12/1
f 16/16/1 15/15/1 17/17/1
f 21/21/1 22/22/1 23/23/1
f 13/13/1 21/21/1 15/15/1
f 24/24/1 25/25/1 20/20/1
f 25/25/1 24/24/1 26/26/1
f 27/27/1 28/28/1 29/29/1
f 25/25/1 30/30/1 20/20/1
f 28/28/1 30/30/1 29/29/1
f 30/30/1 13/13/1 20/20/1
f 23/23/1 22/22/1 31/31/1
f 30/30/1 21/21/1 13/13/1
f 32/32/1 33/33/1 28/28/1
f 34/34/1 33/33/1 35/35/1
f 33/33/1 36/36/1 28/28/1
f 30/30/1 28/28/1 21/21/1
f 22/22/1 36/36/1 37/37/1
f 38/38/1 39/39/1 40/40/1
f 21/21/1 36/36/1 22/22/1
f 40/40/1 39/39/1 41/41/1
f 21/21/1 28/28/1 36/36/1
f 34/34/1 9/9/1 33/33/1
f 42/42/1 10/10/1 43/43/1
f 33/33/1 38/38/1 36/36/1
f 44/44/1 10/10/1 42/42/1
f 10/10/1 9/9/1 34/34/1
f 39/39/1 9/9/1 45/45/1
f 33/33/1 9/9/1 38/38/1
f 46/46/1 44/44/1 47/47/1
f 38/38/1 9/9/1 39/39/1
f 9/9/1 11/11/1 48/48/1
f 11/11/1 44/44/1 46/46/1
f 44/44/1 11/11/1 10/10/1
