{
    "accessors": {
        "accessor_buffer_Untitled.007_0": {
            "bufferView": "bufferView_buffer_Untitled.007_0",
            "byteOffset": 0,
            "byteStride": 12,
            "componentType": 5126,
            "count": 37261,
            "max": [
                36.0,
                17.0,
                3.000000238418579
            ],
            "min": [
                0.625,
                0.0,
                -55.0
            ],
            "type": "VEC3"
        },
        "accessor_buffer_Untitled.007_1": {
            "bufferView": "bufferView_buffer_Untitled.007_0",
            "byteOffset": 447132,
            "byteStride": 12,
            "componentType": 5126,
            "count": 37261,
            "max": [
                1.0,
                1.0,
                1.0
            ],
            "min": [
                -1.0,
                -1.0,
                -1.0
            ],
            "type": "VEC3"
        },
        "accessor_buffer_Untitled.007_2": {
            "bufferView": "bufferView_buffer_Untitled.007_0",
            "byteOffset": 894264,
            "byteStride": 8,
            "componentType": 5126,
            "count": 37261,
            "max": [
                0.9472659826278687,
                0.49023401737213135
            ],
            "min": [
                0.0019531298894435167,
                0.0019530057907104492
            ],
            "type": "VEC2"
        },
        "accessor_buffer_Untitled.007_3": {
            "bufferView": "bufferView_buffer_Untitled.007_0",
            "byteOffset": 1192352,
            "byteStride": 12,
            "componentType": 5126,
            "count": 37261,
            "max": [
                1.0,
                1.0,
                1.0
            ],
            "min": [
                0.19607843458652496,
                0.19607843458652496,
                0.19607843458652496
            ],
            "type": "VEC3"
        },
        "accessor_buffer_Untitled.007_4": {
            "bufferView": "bufferView_buffer_Untitled.007_1",
            "byteOffset": 0,
            "byteStride": 2,
            "componentType": 5123,
            "count": 56424,
            "max": [
                37260
            ],
            "min": [
                0
            ],
            "type": "SCALAR"
        },
        "accessor_buffer_Untitled.007_5": {
            "bufferView": "bufferView_buffer_Untitled.007_2",
            "byteOffset": 0,
            "byteStride": 2,
            "componentType": 5123,
            "count": 24,
            "max": [
                36391
            ],
            "min": [
                2287
            ],
            "type": "SCALAR"
        }
    },
    "asset": {
        "profile": {
            "api": "WebGL",
            "version": "1.0.3"
        },
        "version": "1.0"
    },
    "bufferViews": {
        "bufferView_buffer_Untitled.007_0": {
            "buffer": "buffer_combined",
            "byteLength": 1639484,
            "byteOffset": 0,
            "target": 34962
        },
        "bufferView_buffer_Untitled.007_1": {
            "buffer": "buffer_combined",
            "byteLength": 112848,
            "byteOffset": 1639484,
            "target": 34963
        },
        "bufferView_buffer_Untitled.007_2": {
            "buffer": "buffer_combined",
            "byteLength": 48,
            "byteOffset": 1752332,
            "target": 34963
        }
    },
    "buffers": {
        "buffer_combined": {
            "byteLength": 1752380,
            "type": "arraybuffer",
            "uri": "data:text/plain;base64,"
        }
    },
    "extensions": {
        "KHR_materials_common": {
            "lights": {}
        }
    },
    "extensionsUsed": [
        "KHR_materials_common"
    ],
    "images": {
        "image_world-RGBA.png": {
            "uri": "world-RGBA.png"
        }
    },
    "materials": {
        "material_lambert3.001": {
            "extensions": {
                "KHR_materials_common": {
                    "technique": "LAMBERT",
                    "values": {
                        "ambient": [
                            1.0,
                            1.0,
                            1.0,
                            1.0
                        ],
                        "diffuse": "texture_Texture",
                        "doubleSided": false,
                        "emission": [
                            0.0,
                            0.0,
                            0.0,
                            1.0
                        ],
                        "shininess": 49,
                        "specular": [
                            0.0,
                            0.0,
                            0.0,
                            1.0
                        ],
                        "transparency": 1.0,
                        "transparent": false
                    }
                }
            },
            "name": "lambert3.001"
        },
        "material_lambert3.003": {
            "extensions": {
                "KHR_materials_common": {
                    "technique": "LAMBERT",
                    "values": {
                        "ambient": [
                            1.0,
                            1.0,
                            1.0,
                            1.0
                        ],
                        "diffuse": "texture_Texture",
                        "doubleSided": false,
                        "emission": [
                            0.0,
                            0.0,
                            0.0,
                            1.0
                        ],
                        "shininess": 49,
                        "specular": [
                            0.0,
                            0.0,
                            0.0,
                            1.0
                        ],
                        "transparency": 1.0,
                        "transparent": true
                    }
                }
            },
            "name": "lambert3.003"
        }
    },
    "meshes": {
        "mesh_Untitled.007": {
            "name": "Untitled.007",
            "primitives": [
                {
                    "attributes": {
                        "COLOR_0": "accessor_buffer_Untitled.007_3",
                        "NORMAL": "accessor_buffer_Untitled.007_1",
                        "POSITION": "accessor_buffer_Untitled.007_0",
                        "TEXCOORD_0": "accessor_buffer_Untitled.007_2"
                    },
                    "indices": "accessor_buffer_Untitled.007_4",
                    "material": "material_lambert3.001",
                    "mode": 4
                },
                {
                    "attributes": {
                        "COLOR_0": "accessor_buffer_Untitled.007_3",
                        "NORMAL": "accessor_buffer_Untitled.007_1",
                        "POSITION": "accessor_buffer_Untitled.007_0",
                        "TEXCOORD_0": "accessor_buffer_Untitled.007_2"
                    },
                    "indices": "accessor_buffer_Untitled.007_5",
                    "material": "material_lambert3.003",
                    "mode": 4
                }
            ]
        }
    },
    "nodes": {
        "node_front_left": {
            "children": [],
            "matrix": [
                1.0,
                0.0,
                0.0,
                0.0,
                0.0,
                -1.6292068494294654e-07,
                1.0,
                0.0,
                0.0,
                -1.0,
                -1.6292068494294654e-07,
                0.0,
                0.0,
                0.0,
                0.0,
                1.0
            ],
            "meshes": [
                "mesh_Untitled.007"
            ],
            "name": "front_left"
        },
        "node_scene_Scene_root": {
            "children": [
                "node_front_left"
            ],
            "matrix": [
                1.0,
                0.0,
                0.0,
                0.0,
                0.0,
                0.0,
                -1.0,
                0.0,
                0.0,
                1.0,
                0.0,
                0.0,
                0.0,
                0.0,
                0.0,
                1.0
            ],
            "name": "node_scene_Scene_root"
        }
    },
    "samplers": {
        "sampler_default": {}
    },
    "scene": "scene_Scene",
    "scenes": {
        "scene_Scene": {
            "extras": {
                "active_camera": "camera_Camera",
                "background_color": [
                    40.5,
                    40.5,
                    40.5
                ],
                "frames_per_second": 24
            },
            "name": "Scene",
            "nodes": [
                "node_scene_Scene_root"
            ]
        }
    },
    "textures": {
        "texture_Texture": {
            "format": 6408,
            "internalFormat": 6408,
            "sampler": "sampler_default",
            "source": "image_world-RGBA.png"
        }
    }
}
