{
    "accessors": {
        "accessor_buffer_Untitled.030_0": {
            "bufferView": "bufferView_buffer_Untitled.030_0",
            "byteOffset": 0,
            "byteStride": 12,
            "componentType": 5126,
            "count": 24,
            "max": [
                14.482830047607422,
                13.056200981140137,
                6.685194492340088
            ],
            "min": [
                14.357500076293945,
                12.424905776977539,
                6.357510089874268
            ],
            "type": "VEC3"
        },
        "accessor_buffer_Untitled.030_1": {
            "bufferView": "bufferView_buffer_Untitled.030_0",
            "byteOffset": 288,
            "byteStride": 12,
            "componentType": 5126,
            "count": 24,
            "max": [
                0.7086472511291504,
                0.9426806569099426,
                0.664793848991394
            ],
            "min": [
                -0.7084077596664429,
                -0.2387441098690033,
                -0.7307659983634949
            ],
            "type": "VEC3"
        },
        "accessor_buffer_Untitled.030_2": {
            "bufferView": "bufferView_buffer_Untitled.030_0",
            "byteOffset": 576,
            "byteStride": 8,
            "componentType": 5126,
            "count": 24,
            "max": [
                0.8652340173721313,
                0.10351598262786865
            ],
            "min": [
                0.8574219942092896,
                0.0820310115814209
            ],
            "type": "VEC2"
        },
        "accessor_buffer_Untitled.030_3": {
            "bufferView": "bufferView_buffer_Untitled.030_0",
            "byteOffset": 768,
            "byteStride": 12,
            "componentType": 5126,
            "count": 24,
            "max": [
                0.48235294222831726,
                0.48235294222831726,
                0.48235294222831726
            ],
            "min": [
                0.19607843458652496,
                0.19607843458652496,
                0.19607843458652496
            ],
            "type": "VEC3"
        },
        "accessor_buffer_Untitled.030_4": {
            "bufferView": "bufferView_buffer_Untitled.030_1",
            "byteOffset": 0,
            "byteStride": 2,
            "componentType": 5123,
            "count": 36,
            "max": [
                23
            ],
            "min": [
                0
            ],
            "type": "SCALAR"
        }
    },
    "asset": {
        "profile": {
            "api": "WebGL",
            "version": "1.0.3"
        },
        "version": "1.0"
    },
    "bufferViews": {
        "bufferView_buffer_Untitled.030_0": {
            "buffer": "buffer_combined",
            "byteLength": 1056,
            "byteOffset": 0,
            "target": 34962
        },
        "bufferView_buffer_Untitled.030_1": {
            "buffer": "buffer_combined",
            "byteLength": 72,
            "byteOffset": 1056,
            "target": 34963
        }
    },
    "buffers": {
        "buffer_combined": {
            "byteLength": 1128,
            "type": "arraybuffer",
            "uri": "data:text/plain;base64,"
        }
    },
    "extensions": {
        "KHR_materials_common": {
            "lights": {}
        }
    },
    "extensionsUsed": [
        "KHR_materials_common"
    ],
    "images": {
        "image_world-RGBA.png": {
            "uri": "world-RGBA.png"
        }
    },
    "materials": {
        "material_lambert3": {
            "extensions": {
                "KHR_materials_common": {
                    "technique": "LAMBERT",
                    "values": {
                        "ambient": [
                            1.0,
                            1.0,
                            1.0,
                            1.0
                        ],
                        "diffuse": "texture_Texture",
                        "doubleSided": false,
                        "emission": [
                            0.0,
                            0.0,
                            0.0,
                            1.0
                        ],
                        "shininess": 49,
                        "specular": [
                            0.0,
                            0.0,
                            0.0,
                            1.0
                        ],
                        "transparency": 1.0,
                        "transparent": false
                    }
                }
            },
            "name": "lambert3"
        }
    },
    "meshes": {
        "mesh_Untitled.030": {
            "name": "Untitled.030",
            "primitives": [
                {
                    "attributes": {
                        "COLOR_0": "accessor_buffer_Untitled.030_3",
                        "NORMAL": "accessor_buffer_Untitled.030_1",
                        "POSITION": "accessor_buffer_Untitled.030_0",
                        "TEXCOORD_0": "accessor_buffer_Untitled.030_2"
                    },
                    "indices": "accessor_buffer_Untitled.030_4",
                    "material": "material_lambert3",
                    "mode": 4
                }
            ]
        }
    },
    "nodes": {
        "node_lights": {
            "children": [],
            "matrix": [
                1.0,
                0.0,
                0.0,
                0.0,
                0.0,
                -1.6292068494294654e-07,
                1.0,
                0.0,
                0.0,
                -1.0,
                -1.6292068494294654e-07,
                0.0,
                0.07999999076128006,
                -0.3699999153614044,
                -0.21000002324581146,
                1.0
            ],
            "meshes": [
                "mesh_Untitled.030"
            ],
            "name": "lights"
        },
        "node_scene_Scene_root": {
            "children": [
                "node_lights"
            ],
            "matrix": [
                1.0,
                0.0,
                0.0,
                0.0,
                0.0,
                0.0,
                -1.0,
                0.0,
                0.0,
                1.0,
                0.0,
                0.0,
                0.0,
                0.0,
                0.0,
                1.0
            ],
            "name": "node_scene_Scene_root"
        }
    },
    "samplers": {
        "sampler_default": {}
    },
    "scene": "scene_Scene",
    "scenes": {
        "scene_Scene": {
            "extras": {
                "active_camera": "camera_Camera",
                "background_color": [
                    40.5,
                    40.5,
                    40.5
                ],
                "frames_per_second": 24
            },
            "name": "Scene",
            "nodes": [
                "node_scene_Scene_root"
            ]
        }
    },
    "textures": {
        "texture_Texture": {
            "format": 6408,
            "internalFormat": 6408,
            "sampler": "sampler_default",
            "source": "image_world-RGBA.png"
        }
    }
}
