{
    "accessors": {
        "accessor_buffer_Untitled.004_0": {
            "bufferView": "bufferView_buffer_Untitled.004_0",
            "byteOffset": 0,
            "byteStride": 12,
            "componentType": 5126,
            "count": 1440,
            "max": [
                2056.2666015625,
                1484.9158935546875,
                3556.45458984375
            ],
            "min": [
                -2011.38525390625,
                497.9928283691406,
                -311.3841857910156
            ],
            "type": "VEC3"
        },
        "accessor_buffer_Untitled.004_1": {
            "bufferView": "bufferView_buffer_Untitled.004_0",
            "byteOffset": 17280,
            "byteStride": 12,
            "componentType": 5126,
            "count": 1440,
            "max": [
                1.0,
                0.9999616146087646,
                0.9999998807907104
            ],
            "min": [
                -1.0,
                -0.34425464272499084,
                -0.9999998807907104
            ],
            "type": "VEC3"
        },
        "accessor_buffer_Untitled.004_2": {
            "bufferView": "bufferView_buffer_Untitled.004_0",
            "byteOffset": 34560,
            "byteStride": 8,
            "componentType": 5126,
            "count": 1440,
            "max": [
                0.8652340173721313,
                0.10351598262786865
            ],
            "min": [
                0.8574219942092896,
                0.0820310115814209
            ],
            "type": "VEC2"
        },
        "accessor_buffer_Untitled.004_3": {
            "bufferView": "bufferView_buffer_Untitled.004_0",
            "byteOffset": 46080,
            "byteStride": 12,
            "componentType": 5126,
            "count": 1440,
            "max": [
                1.0,
                1.0,
                1.0
            ],
            "min": [
                0.49803921580314636,
                0.49803921580314636,
                0.49803921580314636
            ],
            "type": "VEC3"
        },
        "accessor_buffer_Untitled.004_4": {
            "bufferView": "bufferView_buffer_Untitled.004_1",
            "byteOffset": 0,
            "byteStride": 2,
            "componentType": 5123,
            "count": 2160,
            "max": [
                1439
            ],
            "min": [
                0
            ],
            "type": "SCALAR"
        }
    },
    "asset": {
        "profile": {
            "api": "WebGL",
            "version": "1.0.3"
        },
        "version": "1.0"
    },
    "bufferViews": {
        "bufferView_buffer_Untitled.004_0": {
            "buffer": "buffer_combined",
            "byteLength": 63360,
            "byteOffset": 0,
            "target": 34962
        },
        "bufferView_buffer_Untitled.004_1": {
            "buffer": "buffer_combined",
            "byteLength": 4320,
            "byteOffset": 63360,
            "target": 34963
        }
    },
    "buffers": {
        "buffer_combined": {
            "byteLength": 67680,
            "type": "arraybuffer",
            "uri": "data:text/plain;base64,"
        }
    },
    "extensions": {
        "KHR_materials_common": {
            "lights": {}
        }
    },
    "extensionsUsed": [
        "KHR_materials_common"
    ],
    "images": {
        "image_world-RGBABig.png": {
            "uri": "world-RGBABig.png"
        }
    },
    "materials": {
        "material_opaqueTerrainMat": {
            "extensions": {
                "KHR_materials_common": {
                    "technique": "CONSTANT",
                    "values": {
                        "ambient": [
                            1.0,
                            1.0,
                            1.0,
                            1.0
                        ],
                        "diffuse": "texture_file1",
                        "doubleSided": false,
                        "emission": "texture_file1",
                        "shininess": 49,
                        "specular": [
                            0.5,
                            0.5,
                            0.5,
                            1.0
                        ],
                        "transparency": 1.0,
                        "transparent": false
                    }
                }
            },
            "name": "opaqueTerrainMat"
        }
    },
    "meshes": {
        "mesh_Untitled.004": {
            "name": "Untitled.004",
            "primitives": [
                {
                    "attributes": {
                        "COLOR_0": "accessor_buffer_Untitled.004_3",
                        "NORMAL": "accessor_buffer_Untitled.004_1",
                        "POSITION": "accessor_buffer_Untitled.004_0",
                        "TEXCOORD_0": "accessor_buffer_Untitled.004_2"
                    },
                    "indices": "accessor_buffer_Untitled.004_4",
                    "material": "material_opaqueTerrainMat",
                    "mode": 4
                }
            ]
        }
    },
    "nodes": {
        "node_lights": {
            "children": [],
            "matrix": [
                0.009999999776482582,
                0.0,
                0.0,
                0.0,
                0.0,
                -1.6292067694934076e-09,
                0.009999999776482582,
                0.0,
                0.0,
                -0.009999999776482582,
                -1.6292067694934076e-09,
                0.0,
                0.0,
                0.0,
                0.0,
                1.0
            ],
            "meshes": [
                "mesh_Untitled.004"
            ],
            "name": "lights"
        },
        "node_scene_Scene_root": {
            "children": [
                "node_lights"
            ],
            "matrix": [
                1.0,
                0.0,
                0.0,
                0.0,
                0.0,
                0.0,
                -1.0,
                0.0,
                0.0,
                1.0,
                0.0,
                0.0,
                0.0,
                0.0,
                0.0,
                1.0
            ],
            "name": "node_scene_Scene_root"
        }
    },
    "samplers": {
        "sampler_default": {}
    },
    "scene": "scene_Scene",
    "scenes": {
        "scene_Scene": {
            "extras": {
                "active_camera": null,
                "background_color": [
                    0.05087608844041824,
                    0.05087608844041824,
                    0.05087608844041824
                ],
                "frames_per_second": 24
            },
            "name": "Scene",
            "nodes": [
                "node_scene_Scene_root"
            ]
        }
    },
    "textures": {
        "texture_file1": {
            "format": 6408,
            "internalFormat": 6408,
            "sampler": "sampler_default",
            "source": "image_world-RGBABig.png"
        }
    }
}
