{
    "accessors": {
        "accessor_buffer_Untitled.090_0": {
            "bufferView": "bufferView_buffer_Untitled.090_0",
            "byteOffset": 0,
            "byteStride": 12,
            "componentType": 5126,
            "count": 1392,
            "max": [
                32.064544677734375,
                8.315648078918457,
                32.16385269165039
            ],
            "min": [
                -6.613842010498047,
                -1.553582787513733,
                -8.512663841247559
            ],
            "type": "VEC3"
        },
        "accessor_buffer_Untitled.090_1": {
            "bufferView": "bufferView_buffer_Untitled.090_0",
            "byteOffset": 16704,
            "byteStride": 12,
            "componentType": 5126,
            "count": 1392,
            "max": [
                0.740482747554779,
                0.9999616146087646,
                0.7307664752006531
            ],
            "min": [
                -0.730769157409668,
                -0.24323770403862,
                -0.730766773223877
            ],
            "type": "VEC3"
        },
        "accessor_buffer_Untitled.090_2": {
            "bufferView": "bufferView_buffer_Untitled.090_0",
            "byteOffset": 33408,
            "byteStride": 8,
            "componentType": 5126,
            "count": 1392,
            "max": [
                0.8652340173721313,
                0.10351598262786865
            ],
            "min": [
                0.8574219942092896,
                0.0820310115814209
            ],
            "type": "VEC2"
        },
        "accessor_buffer_Untitled.090_3": {
            "bufferView": "bufferView_buffer_Untitled.090_0",
            "byteOffset": 44544,
            "byteStride": 12,
            "componentType": 5126,
            "count": 1392,
            "max": [
                0.9960784316062927,
                0.9137254953384399,
                0.8352941274642944
            ],
            "min": [
                0.19607843458652496,
                0.19607843458652496,
                0.19607843458652496
            ],
            "type": "VEC3"
        },
        "accessor_buffer_Untitled.090_4": {
            "bufferView": "bufferView_buffer_Untitled.090_1",
            "byteOffset": 0,
            "byteStride": 2,
            "componentType": 5123,
            "count": 2088,
            "max": [
                1391
            ],
            "min": [
                0
            ],
            "type": "SCALAR"
        }
    },
    "asset": {
        "profile": {
            "api": "WebGL",
            "version": "1.0.3"
        },
        "version": "1.0"
    },
    "bufferViews": {
        "bufferView_buffer_Untitled.090_0": {
            "buffer": "buffer_combined",
            "byteLength": 61248,
            "byteOffset": 0,
            "target": 34962
        },
        "bufferView_buffer_Untitled.090_1": {
            "buffer": "buffer_combined",
            "byteLength": 4176,
            "byteOffset": 61248,
            "target": 34963
        }
    },
    "buffers": {
        "buffer_combined": {
            "byteLength": 65424,
            "type": "arraybuffer",
            "uri": "data:text/plain;base64,"
        }
    },
    "extensions": {
        "KHR_materials_common": {
            "lights": {}
        }
    },
    "extensionsUsed": [
        "KHR_materials_common"
    ],
    "images": {
        "image_world-RGBA.png": {
            "uri": "world-RGBA.png"
        }
    },
    "materials": {
        "material_lambert3": {
            "extensions": {
                "KHR_materials_common": {
                    "technique": "LAMBERT",
                    "values": {
                        "ambient": [
                            1.0,
                            1.0,
                            1.0,
                            1.0
                        ],
                        "diffuse": "texture_Texture",
                        "doubleSided": false,
                        "emission": [
                            0.0,
                            0.0,
                            0.0,
                            1.0
                        ],
                        "shininess": 49,
                        "specular": [
                            0.0,
                            0.0,
                            0.0,
                            1.0
                        ],
                        "transparency": 1.0,
                        "transparent": false
                    }
                }
            },
            "name": "lambert3"
        }
    },
    "meshes": {
        "mesh_Untitled.090": {
            "name": "Untitled.090",
            "primitives": [
                {
                    "attributes": {
                        "COLOR_0": "accessor_buffer_Untitled.090_3",
                        "NORMAL": "accessor_buffer_Untitled.090_1",
                        "POSITION": "accessor_buffer_Untitled.090_0",
                        "TEXCOORD_0": "accessor_buffer_Untitled.090_2"
                    },
                    "indices": "accessor_buffer_Untitled.090_4",
                    "material": "material_lambert3",
                    "mode": 4
                }
            ]
        }
    },
    "nodes": {
        "node_lights.057": {
            "children": [],
            "matrix": [
                -4.371138828673793e-08,
                -1.0,
                0.0,
                0.0,
                -4.371138828673793e-08,
                1.910685676922942e-15,
                1.0,
                0.0,
                -1.0,
                4.371138828673793e-08,
                -4.371138828673793e-08,
                0.0,
                12.050000190734863,
                -3.5,
                6.533510208129883,
                1.0
            ],
            "meshes": [
                "mesh_Untitled.090"
            ],
            "name": "lights.057"
        }
    },
    "samplers": {
        "sampler_default": {}
    },
    "scene": "scene_Scene",
    "scenes": {
        "scene_Scene": {
            "extras": {
                "active_camera": "camera_Camera",
                "background_color": [
                    40.5,
                    40.5,
                    40.5
                ],
                "frames_per_second": 24
            },
            "name": "Scene",
            "nodes": [
                "node_lights.057"
            ]
        }
    },
    "textures": {
        "texture_Texture": {
            "format": 6408,
            "internalFormat": 6408,
            "sampler": "sampler_default",
            "source": "image_world-RGBA.png"
        }
    }
}
