# Blender v2.78 (sub 0) OBJ File: 'world13.blend'
# www.blender.org
mtllib world6_1.mtl
o frontDoorRight_Untitled.003
v 1.000000 5.000000 1.000002
v 0.000000 5.000000 1.000002
v 0.000000 4.000000 1.000001
v 1.000000 4.000000 1.000001
v 0.000000 6.000000 1.000002
v 1.000000 6.000000 1.000002
v 0.000000 4.000000 1.187501
v 0.000000 6.000000 1.187502
v 0.000000 5.000000 1.000002
v 0.000000 5.000000 1.187502
v 0.000000 4.000000 1.000001
v 1.000000 4.000000 1.187501
v 1.000000 4.000000 1.000001
v 1.000000 5.000000 1.187502
v 1.000000 5.000000 1.000002
v 0.000000 6.000000 1.000002
v 1.000000 6.000000 1.187502
v 1.000000 6.000000 1.000002
vt 0.4551 0.5410
vt 0.4238 0.5098
vt 0.4238 0.5410
vt 0.4902 0.5410
vt 0.4590 0.5098
vt 0.4590 0.5410
vt 0.4551 0.5410
vt 0.4492 0.5098
vt 0.4492 0.5410
vt 0.4551 0.5098
vt 0.4238 0.5156
vt 0.4238 0.5098
vt 0.4238 0.5098
vt 0.4551 0.5410
vt 0.4238 0.5410
vt 0.4297 0.5410
vt 0.4238 0.5098
vt 0.4238 0.5410
vt 0.4902 0.5410
vt 0.4844 0.5098
vt 0.4844 0.5410
vt 0.4590 0.5098
vt 0.4902 0.5410
vt 0.4590 0.5410
vt 0.4590 0.5410
vt 0.4648 0.5098
vt 0.4590 0.5098
vt 0.4551 0.5098
vt 0.4238 0.5156
vt 0.4551 0.5156
vt 0.4551 0.5098
vt 0.4902 0.5098
vt 0.4551 0.5098
vt 0.4551 0.5156
vt 0.4551 0.5098
vt 0.4297 0.5098
vt 0.4902 0.5098
vt 0.4902 0.5098
vt 0.4648 0.5410
vt 0.4238 0.5098
vn -0.0000 0.0000 -1.0000
vn -1.0000 0.0000 0.0000
vn 0.0000 -1.0000 0.0000
vn -0.0000 -0.0000 1.0000
vn 1.0000 0.0000 0.0000
vn 0.0000 1.0000 0.0000
usemtl opaqueTerrainMat
s 1
f 1/1/1 3/2/1 2/3/1
f 6/4/1 2/5/1 5/6/1
f 9/7/2 7/8/2 10/9/2
f 13/10/3 7/11/3 11/12/3
f 7/13/4 14/14/4 10/15/4
f 14/16/5 13/17/5 15/18/5
f 16/19/2 10/20/2 8/21/2
f 10/22/4 17/23/4 8/24/4
f 18/25/5 14/26/5 15/27/5
f 18/28/6 8/29/6 17/30/6
f 1/1/1 4/31/1 3/2/1
f 6/4/1 1/32/1 2/5/1
f 9/7/2 11/33/2 7/8/2
f 13/10/3 12/34/3 7/11/3
f 7/13/4 12/35/4 14/14/4
f 14/16/5 12/36/5 13/17/5
f 16/19/2 9/37/2 10/20/2
f 10/22/4 14/38/4 17/23/4
f 18/25/5 17/39/5 14/26/5
f 18/28/6 16/40/6 8/29/6
