{
    "accessors": {
        "accessor_buffer_Untitled.011_0": {
            "bufferView": "bufferView_buffer_Untitled.011_0",
            "byteOffset": 0,
            "byteStride": 12,
            "componentType": 5126,
            "count": 18538,
            "max": [
                3600.0,
                1899.999755859375,
                5600.0
            ],
            "min": [
                -3500.0,
                -0.0009123557829298079,
                -5500.0
            ],
            "type": "VEC3"
        },
        "accessor_buffer_Untitled.011_1": {
            "bufferView": "bufferView_buffer_Untitled.011_0",
            "byteOffset": 222456,
            "byteStride": 12,
            "componentType": 5126,
            "count": 18538,
            "max": [
                1.0,
                1.0,
                1.0
            ],
            "min": [
                -1.0,
                -1.0,
                -1.0
            ],
            "type": "VEC3"
        },
        "accessor_buffer_Untitled.011_2": {
            "bufferView": "bufferView_buffer_Untitled.011_0",
            "byteOffset": 444912,
            "byteStride": 8,
            "componentType": 5126,
            "count": 18538,
            "max": [
                0.9785159826278687,
                0.45507800579071045
            ],
            "min": [
                0.0019531298894435167,
                0.0019530057907104492
            ],
            "type": "VEC2"
        },
        "accessor_buffer_Untitled.011_3": {
            "bufferView": "bufferView_buffer_Untitled.011_0",
            "byteOffset": 593216,
            "byteStride": 12,
            "componentType": 5126,
            "count": 18538,
            "max": [
                1.0,
                1.0,
                1.0
            ],
            "min": [
                0.15294118225574493,
                0.15294118225574493,
                0.15294118225574493
            ],
            "type": "VEC3"
        },
        "accessor_buffer_Untitled.011_4": {
            "bufferView": "bufferView_buffer_Untitled.011_1",
            "byteOffset": 0,
            "byteStride": 2,
            "componentType": 5123,
            "count": 27948,
            "max": [
                18537
            ],
            "min": [
                0
            ],
            "type": "SCALAR"
        }
    },
    "asset": {
        "profile": {
            "api": "WebGL",
            "version": "1.0.3"
        },
        "version": "1.0"
    },
    "bufferViews": {
        "bufferView_buffer_Untitled.011_0": {
            "buffer": "buffer_combined",
            "byteLength": 815672,
            "byteOffset": 0,
            "target": 34962
        },
        "bufferView_buffer_Untitled.011_1": {
            "buffer": "buffer_combined",
            "byteLength": 55896,
            "byteOffset": 815672,
            "target": 34963
        }
    },
    "buffers": {
        "buffer_combined": {
            "byteLength": 871568,
            "type": "arraybuffer",
            "uri": "data:text/plain;base64,"
        }
    },
    "extensions": {
        "KHR_materials_common": {
            "lights": {}
        }
    },
    "extensionsUsed": [
        "KHR_materials_common"
    ],
    "images": {
        "image_file1": {
            "uri": "world-RGBA.png"
        }
    },
    "materials": {
        "material_opaqueTerrainMat": {
            "extensions": {
                "KHR_materials_common": {
                    "technique": "CONSTANT",
                    "values": {
                        "ambient": [
                            1.0,
                            1.0,
                            1.0,
                            1.0
                        ],
                        "diffuse": "texture_file1",
                        "doubleSided": false,
                        "emission": "texture_file1",
                        "shininess": 49,
                        "specular": [
                            0.5,
                            0.5,
                            0.5,
                            1.0
                        ],
                        "transparency": 1.0,
                        "transparent": false
                    }
                }
            },
            "name": "opaqueTerrainMat"
        }
    },
    "meshes": {
        "mesh_Untitled.011": {
            "name": "Untitled.011",
            "primitives": [
                {
                    "attributes": {
                        "COLOR_0": "accessor_buffer_Untitled.011_3",
                        "NORMAL": "accessor_buffer_Untitled.011_1",
                        "POSITION": "accessor_buffer_Untitled.011_0",
                        "TEXCOORD_0": "accessor_buffer_Untitled.011_2"
                    },
                    "indices": "accessor_buffer_Untitled.011_4",
                    "material": "material_opaqueTerrainMat",
                    "mode": 4
                }
            ]
        }
    },
    "nodes": {
        "node_opaqueTerrain.002": {
            "children": [],
            "matrix": [
                0.009999999776482582,
                0.0,
                0.0,
                0.0,
                0.0,
                -1.6292067694934076e-09,
                0.009999999776482582,
                0.0,
                0.0,
                -0.009999999776482582,
                -1.6292067694934076e-09,
                0.0,
                0.0,
                0.0,
                0.0,
                1.0
            ],
            "meshes": [
                "mesh_Untitled.011"
            ],
            "name": "opaqueTerrain.002"
        },
        "node_scene_Scene_root": {
            "children": [
                "node_opaqueTerrain.002"
            ],
            "matrix": [
                1.0,
                0.0,
                0.0,
                0.0,
                0.0,
                0.0,
                -1.0,
                0.0,
                0.0,
                1.0,
                0.0,
                0.0,
                0.0,
                0.0,
                0.0,
                1.0
            ],
            "name": "node_scene_Scene_root"
        }
    },
    "samplers": {
        "sampler_default": {}
    },
    "scene": "scene_Scene",
    "scenes": {
        "scene_Scene": {
            "extras": {
                "active_camera": null,
                "background_color": [
                    0.05087608844041824,
                    0.05087608844041824,
                    0.05087608844041824
                ],
                "frames_per_second": 24
            },
            "name": "Scene",
            "nodes": [
                "node_scene_Scene_root"
            ]
        }
    },
    "textures": {
        "texture_file1": {
            "format": 6408,
            "internalFormat": 6408,
            "sampler": "sampler_default",
            "source": "image_file1"
        }
    }
}
