{
    "accessors": {
        "accessor_buffer_Untitled.006_0": {
            "bufferView": "bufferView_buffer_Untitled.006_0",
            "byteOffset": 0,
            "byteStride": 12,
            "componentType": 5126,
            "count": 2580,
            "max": [
                2000.0,
                1699.9998779296875,
                5500.0
            ],
            "min": [
                -3400.0,
                199.9990997314453,
                -2800.0
            ],
            "type": "VEC3"
        },
        "accessor_buffer_Untitled.006_1": {
            "bufferView": "bufferView_buffer_Untitled.006_0",
            "byteOffset": 30960,
            "byteStride": 12,
            "componentType": 5126,
            "count": 2580,
            "max": [
                1.0,
                1.0,
                1.0
            ],
            "min": [
                -1.0,
                -1.0,
                -1.0
            ],
            "type": "VEC3"
        },
        "accessor_buffer_Untitled.006_2": {
            "bufferView": "bufferView_buffer_Untitled.006_0",
            "byteOffset": 61920,
            "byteStride": 8,
            "componentType": 5126,
            "count": 2580,
            "max": [
                0.9824219942092896,
                0.5605469942092896
            ],
            "min": [
                0.14257800579071045,
                0.03710901737213135
            ],
            "type": "VEC2"
        },
        "accessor_buffer_Untitled.006_3": {
            "bufferView": "bufferView_buffer_Untitled.006_0",
            "byteOffset": 82560,
            "byteStride": 12,
            "componentType": 5126,
            "count": 2580,
            "max": [
                1.0,
                1.0,
                1.0
            ],
            "min": [
                0.0313725508749485,
                0.0313725508749485,
                0.0313725508749485
            ],
            "type": "VEC3"
        },
        "accessor_buffer_Untitled.006_4": {
            "bufferView": "bufferView_buffer_Untitled.006_1",
            "byteOffset": 0,
            "byteStride": 2,
            "componentType": 5123,
            "count": 3846,
            "max": [
                2579
            ],
            "min": [
                0
            ],
            "type": "SCALAR"
        }
    },
    "asset": {
        "profile": {
            "api": "WebGL",
            "version": "1.0.3"
        },
        "version": "1.0"
    },
    "bufferViews": {
        "bufferView_buffer_Untitled.006_0": {
            "buffer": "buffer_combined",
            "byteLength": 113520,
            "byteOffset": 0,
            "target": 34962
        },
        "bufferView_buffer_Untitled.006_1": {
            "buffer": "buffer_combined",
            "byteLength": 7692,
            "byteOffset": 113520,
            "target": 34963
        }
    },
    "buffers": {
        "buffer_combined": {
            "byteLength": 121212,
            "type": "arraybuffer",
            "uri": "data:text/plain;base64,"
        }
    },
    "extensions": {
        "KHR_materials_common": {
            "lights": {}
        }
    },
    "extensionsUsed": [
        "KHR_materials_common"
    ],
    "images": {
        "image_file2": {
            "uri": "world-RGBA.png"
        }
    },
    "materials": {
        "material_transparentTerrainMat": {
            "extensions": {
                "KHR_materials_common": {
                    "technique": "PHONG",
                    "values": {
                        "ambient": [
                            1.0,
                            1.0,
                            1.0,
                            1.0
                        ],
                        "diffuse": "texture_file2",
                        "doubleSided": false,
                        "emission": [
                            0.0,
                            0.0,
                            0.0,
                            0.0
                        ],
                        "shininess": 49,
                        "specular": [
                            0.5,
                            0.5,
                            0.5,
                            1.0
                        ],
                        "transparency": 0.0,
                        "transparent": true
                    }
                }
            },
            "name": "transparentTerrainMat"
        }
    },
    "meshes": {
        "mesh_Untitled.006": {
            "name": "Untitled.006",
            "primitives": [
                {
                    "attributes": {
                        "COLOR_0": "accessor_buffer_Untitled.006_3",
                        "NORMAL": "accessor_buffer_Untitled.006_1",
                        "POSITION": "accessor_buffer_Untitled.006_0",
                        "TEXCOORD_0": "accessor_buffer_Untitled.006_2"
                    },
                    "indices": "accessor_buffer_Untitled.006_4",
                    "material": "material_transparentTerrainMat",
                    "mode": 4
                }
            ]
        }
    },
    "nodes": {
        "node_new_transparent": {
            "children": [],
            "matrix": [
                0.009999999776482582,
                0.0,
                0.0,
                0.0,
                0.0,
                -1.6292067694934076e-09,
                0.009999999776482582,
                0.0,
                0.0,
                -0.009999999776482582,
                -1.6292067694934076e-09,
                0.0,
                0.0,
                0.0,
                0.0,
                1.0
            ],
            "meshes": [
                "mesh_Untitled.006"
            ],
            "name": "new_transparent"
        },
        "node_scene_Scene_root": {
            "children": [
                "node_new_transparent"
            ],
            "matrix": [
                1.0,
                0.0,
                0.0,
                0.0,
                0.0,
                0.0,
                -1.0,
                0.0,
                0.0,
                1.0,
                0.0,
                0.0,
                0.0,
                0.0,
                0.0,
                1.0
            ],
            "name": "node_scene_Scene_root"
        }
    },
    "samplers": {
        "sampler_default": {}
    },
    "scene": "scene_Scene",
    "scenes": {
        "scene_Scene": {
            "extras": {
                "active_camera": null,
                "background_color": [
                    0.05087608844041824,
                    0.05087608844041824,
                    0.05087608844041824
                ],
                "frames_per_second": 24
            },
            "name": "Scene",
            "nodes": [
                "node_scene_Scene_root"
            ]
        }
    },
    "textures": {
        "texture_file2": {
            "format": 6408,
            "internalFormat": 6408,
            "sampler": "sampler_default",
            "source": "image_file2"
        }
    }
}
