{
    "accessors": {
        "accessor_buffer_Untitled.003_0": {
            "bufferView": "bufferView_buffer_Untitled.003_0",
            "byteOffset": 0,
            "byteStride": 12,
            "componentType": 5126,
            "count": 40,
            "max": [
                100.0,
                100.00003051757812,
                2.288818359375e-05
            ],
            "min": [
                0.0,
                -100.0,
                -18.750015258789062
            ],
            "type": "VEC3"
        },
        "accessor_buffer_Untitled.003_1": {
            "bufferView": "bufferView_buffer_Untitled.003_0",
            "byteOffset": 480,
            "byteStride": 12,
            "componentType": 5126,
            "count": 40,
            "max": [
                1.0,
                1.0,
                1.0
            ],
            "min": [
                -1.0,
                -0.9999999403953552,
                -1.0
            ],
            "type": "VEC3"
        },
        "accessor_buffer_Untitled.003_2": {
            "bufferView": "bufferView_buffer_Untitled.003_0",
            "byteOffset": 960,
            "byteStride": 8,
            "componentType": 5126,
            "count": 40,
            "max": [
                0.49023398756980896,
                0.49023401737213135
            ],
            "min": [
                0.42382800579071045,
                0.45898401737213135
            ],
            "type": "VEC2"
        },
        "accessor_buffer_Untitled.003_3": {
            "bufferView": "bufferView_buffer_Untitled.003_0",
            "byteOffset": 1280,
            "byteStride": 12,
            "componentType": 5126,
            "count": 40,
            "max": [
                1.0,
                1.0,
                1.0
            ],
            "min": [
                0.11372549086809158,
                0.11372549086809158,
                0.11372549086809158
            ],
            "type": "VEC3"
        },
        "accessor_buffer_Untitled.003_4": {
            "bufferView": "bufferView_buffer_Untitled.003_1",
            "byteOffset": 0,
            "byteStride": 2,
            "componentType": 5123,
            "count": 60,
            "max": [
                39
            ],
            "min": [
                0
            ],
            "type": "SCALAR"
        }
    },
    "asset": {
        "profile": {
            "api": "WebGL",
            "version": "1.0.3"
        },
        "version": "1.0"
    },
    "bufferViews": {
        "bufferView_buffer_Untitled.003_0": {
            "buffer": "buffer_combined",
            "byteLength": 1760,
            "byteOffset": 0,
            "target": 34962
        },
        "bufferView_buffer_Untitled.003_1": {
            "buffer": "buffer_combined",
            "byteLength": 120,
            "byteOffset": 1760,
            "target": 34963
        }
    },
    "buffers": {
        "buffer_combined": {
            "byteLength": 1880,
            "type": "arraybuffer",
            "uri": "data:text/plain;base64,"
        }
    },
    "extensions": {
        "KHR_materials_common": {
            "lights": {}
        }
    },
    "extensionsUsed": [
        "KHR_materials_common"
    ],
    "images": {
        "image_world-RGBABig.png": {
            "uri": "world-RGBABig.png"
        }
    },
    "materials": {
        "material_opaqueTerrainMat": {
            "extensions": {
                "KHR_materials_common": {
                    "technique": "CONSTANT",
                    "values": {
                        "ambient": [
                            1.0,
                            1.0,
                            1.0,
                            1.0
                        ],
                        "diffuse": "texture_file1",
                        "doubleSided": false,
                        "emission": "texture_file1",
                        "shininess": 49,
                        "specular": [
                            0.5,
                            0.5,
                            0.5,
                            1.0
                        ],
                        "transparency": 1.0,
                        "transparent": false
                    }
                }
            },
            "name": "opaqueTerrainMat"
        }
    },
    "meshes": {
        "mesh_Untitled.003": {
            "name": "Untitled.003",
            "primitives": [
                {
                    "attributes": {
                        "COLOR_0": "accessor_buffer_Untitled.003_3",
                        "NORMAL": "accessor_buffer_Untitled.003_1",
                        "POSITION": "accessor_buffer_Untitled.003_0",
                        "TEXCOORD_0": "accessor_buffer_Untitled.003_2"
                    },
                    "indices": "accessor_buffer_Untitled.003_4",
                    "material": "material_opaqueTerrainMat",
                    "mode": 4
                }
            ]
        }
    },
    "nodes": {
        "node_frontDoorRight": {
            "children": [],
            "matrix": [
                0.009999999776482582,
                0.0,
                0.0,
                0.0,
                0.0,
                -1.6292067694934076e-09,
                0.009999999776482582,
                0.0,
                0.0,
                -0.009999999776482582,
                -1.6292067694934076e-09,
                0.0,
                0.0,
                -1.1875016689300537,
                4.999999523162842,
                1.0
            ],
            "meshes": [
                "mesh_Untitled.003"
            ],
            "name": "frontDoorRight"
        },
        "node_scene_Scene_root": {
            "children": [
                "node_frontDoorRight"
            ],
            "matrix": [
                1.0,
                0.0,
                0.0,
                0.0,
                0.0,
                0.0,
                -1.0,
                0.0,
                0.0,
                1.0,
                0.0,
                0.0,
                0.0,
                0.0,
                0.0,
                1.0
            ],
            "name": "node_scene_Scene_root"
        }
    },
    "samplers": {
        "sampler_default": {}
    },
    "scene": "scene_Scene",
    "scenes": {
        "scene_Scene": {
            "extras": {
                "active_camera": null,
                "background_color": [
                    0.05087608844041824,
                    0.05087608844041824,
                    0.05087608844041824
                ],
                "frames_per_second": 24
            },
            "name": "Scene",
            "nodes": [
                "node_scene_Scene_root"
            ]
        }
    },
    "textures": {
        "texture_file1": {
            "format": 6408,
            "internalFormat": 6408,
            "sampler": "sampler_default",
            "source": "image_world-RGBABig.png"
        }
    }
}
