{
    "accessors": {
        "accessor_buffer_Untitled.001_0": {
            "bufferView": "bufferView_buffer_Untitled.001_0",
            "byteOffset": 0,
            "byteStride": 12,
            "componentType": 5126,
            "count": 16376,
            "max": [
                3500.0,
                1999.999755859375,
                5500.0
            ],
            "min": [
                -3400.0,
                199.9990997314453,
                -5400.0
            ],
            "type": "VEC3"
        },
        "accessor_buffer_Untitled.001_1": {
            "bufferView": "bufferView_buffer_Untitled.001_0",
            "byteOffset": 196512,
            "byteStride": 12,
            "componentType": 5126,
            "count": 16376,
            "max": [
                1.0,
                1.0,
                1.0
            ],
            "min": [
                -1.0,
                -1.0,
                -1.0
            ],
            "type": "VEC3"
        },
        "accessor_buffer_Untitled.001_2": {
            "bufferView": "bufferView_buffer_Untitled.001_0",
            "byteOffset": 393024,
            "byteStride": 8,
            "componentType": 5126,
            "count": 16376,
            "max": [
                0.9472659826278687,
                0.41992199420928955
            ],
            "min": [
                0.10742200165987015,
                0.03710901737213135
            ],
            "type": "VEC2"
        },
        "accessor_buffer_Untitled.001_3": {
            "bufferView": "bufferView_buffer_Untitled.001_0",
            "byteOffset": 524032,
            "byteStride": 12,
            "componentType": 5126,
            "count": 16376,
            "max": [
                1.0,
                1.0,
                1.0
            ],
            "min": [
                0.0313725508749485,
                0.0313725508749485,
                0.0313725508749485
            ],
            "type": "VEC3"
        },
        "accessor_buffer_Untitled.001_4": {
            "bufferView": "bufferView_buffer_Untitled.001_1",
            "byteOffset": 0,
            "byteStride": 2,
            "componentType": 5123,
            "count": 24618,
            "max": [
                16375
            ],
            "min": [
                0
            ],
            "type": "SCALAR"
        }
    },
    "asset": {
        "profile": {
            "api": "WebGL",
            "version": "1.0.3"
        },
        "version": "1.0"
    },
    "bufferViews": {
        "bufferView_buffer_Untitled.001_0": {
            "buffer": "buffer_combined",
            "byteLength": 720544,
            "byteOffset": 0,
            "target": 34962
        },
        "bufferView_buffer_Untitled.001_1": {
            "buffer": "buffer_combined",
            "byteLength": 49236,
            "byteOffset": 720544,
            "target": 34963
        }
    },
    "buffers": {
        "buffer_combined": {
            "byteLength": 769780,
            "type": "arraybuffer",
            "uri": "data:text/plain;base64,"
        }
    },
    "extensions": {
        "KHR_materials_common": {
            "lights": {}
        }
    },
    "extensionsUsed": [
        "KHR_materials_common"
    ],
    "materials": {
        "material_transparentTerrainMat": {
            "extensions": {
                "KHR_materials_common": {
                    "technique": "PHONG",
                    "values": {
                        "ambient": [
                            1.0,
                            1.0,
                            1.0,
                            1.0
                        ],
                        "diffuse": "texture_file2",
                        "doubleSided": false,
                        "emission": [
                            0.0,
                            0.0,
                            0.0,
                            0.0
                        ],
                        "shininess": 49,
                        "specular": [
                            0.5,
                            0.5,
                            0.5,
                            1.0
                        ],
                        "transparency": 0.0,
                        "transparent": false
                    }
                }
            },
            "name": "transparentTerrainMat"
        }
    },
    "meshes": {
        "mesh_Untitled.001": {
            "name": "Untitled.001",
            "primitives": [
                {
                    "attributes": {
                        "COLOR_0": "accessor_buffer_Untitled.001_3",
                        "NORMAL": "accessor_buffer_Untitled.001_1",
                        "POSITION": "accessor_buffer_Untitled.001_0",
                        "TEXCOORD_0": "accessor_buffer_Untitled.001_2"
                    },
                    "indices": "accessor_buffer_Untitled.001_4",
                    "material": "material_transparentTerrainMat",
                    "mode": 4
                }
            ]
        }
    },
    "nodes": {
        "node_scene_Scene_root": {
            "children": [
                "node_transparentTerrain"
            ],
            "matrix": [
                1.0,
                0.0,
                0.0,
                0.0,
                0.0,
                0.0,
                -1.0,
                0.0,
                0.0,
                1.0,
                0.0,
                0.0,
                0.0,
                0.0,
                0.0,
                1.0
            ],
            "name": "node_scene_Scene_root"
        },
        "node_transparentTerrain": {
            "children": [],
            "matrix": [
                0.009999999776482582,
                0.0,
                0.0,
                0.0,
                0.0,
                -1.6292067694934076e-09,
                0.009999999776482582,
                0.0,
                0.0,
                -0.009999999776482582,
                -1.6292067694934076e-09,
                0.0,
                0.0,
                0.0,
                0.0,
                1.0
            ],
            "meshes": [
                "mesh_Untitled.001"
            ],
            "name": "transparentTerrain"
        }
    },
    "samplers": {
        "sampler_default": {}
    },
    "scene": "scene_Scene",
    "scenes": {
        "scene_Scene": {
            "extras": {
                "active_camera": null,
                "background_color": [
                    0.05087608844041824,
                    0.05087608844041824,
                    0.05087608844041824
                ],
                "frames_per_second": 24
            },
            "name": "Scene",
            "nodes": [
                "node_scene_Scene_root"
            ]
        }
    }
}
