{
    "accessors": {
        "accessor_buffer_Untitled.002_0": {
            "bufferView": "bufferView_buffer_Untitled.002_0",
            "byteOffset": 0,
            "byteStride": 12,
            "componentType": 5126,
            "count": 4278,
            "max": [
                35.0,
                20.0,
                33.0
            ],
            "min": [
                1.0,
                2.0,
                -32.0
            ],
            "type": "VEC3"
        },
        "accessor_buffer_Untitled.002_1": {
            "bufferView": "bufferView_buffer_Untitled.002_0",
            "byteOffset": 51336,
            "byteStride": 12,
            "componentType": 5126,
            "count": 4278,
            "max": [
                1.0,
                1.0,
                1.0
            ],
            "min": [
                -1.0,
                -1.0,
                -1.0
            ],
            "type": "VEC3"
        },
        "accessor_buffer_Untitled.002_2": {
            "bufferView": "bufferView_buffer_Untitled.002_0",
            "byteOffset": 102672,
            "byteStride": 8,
            "componentType": 5126,
            "count": 4278,
            "max": [
                0.9824219942092896,
                0.41992199420928955
            ],
            "min": [
                0.17773400247097015,
                0.0019530057907104492
            ],
            "type": "VEC2"
        },
        "accessor_buffer_Untitled.002_3": {
            "bufferView": "bufferView_buffer_Untitled.002_0",
            "byteOffset": 136896,
            "byteStride": 12,
            "componentType": 5126,
            "count": 4278,
            "max": [
                1.0,
                1.0,
                1.0
            ],
            "min": [
                0.19607843458652496,
                0.19607843458652496,
                0.19607843458652496
            ],
            "type": "VEC3"
        },
        "accessor_buffer_Untitled.002_4": {
            "bufferView": "bufferView_buffer_Untitled.002_1",
            "byteOffset": 0,
            "byteStride": 2,
            "componentType": 5123,
            "count": 6516,
            "max": [
                4277
            ],
            "min": [
                0
            ],
            "type": "SCALAR"
        }
    },
    "asset": {
        "profile": {
            "api": "WebGL",
            "version": "1.0.3"
        },
        "version": "1.0"
    },
    "bufferViews": {
        "bufferView_buffer_Untitled.002_0": {
            "buffer": "buffer_combined",
            "byteLength": 188232,
            "byteOffset": 0,
            "target": 34962
        },
        "bufferView_buffer_Untitled.002_1": {
            "buffer": "buffer_combined",
            "byteLength": 13032,
            "byteOffset": 188232,
            "target": 34963
        }
    },
    "buffers": {
        "buffer_combined": {
            "byteLength": 201264,
            "type": "arraybuffer",
            "uri": "data:text/plain;base64,"
        }
    },
    "extensions": {
        "KHR_materials_common": {
            "lights": {}
        }
    },
    "extensionsUsed": [
        "KHR_materials_common"
    ],
    "images": {
        "image_world-RGBA.png": {
            "uri": "world-RGBA.png"
        }
    },
    "materials": {
        "material_lambert3.003": {
            "extensions": {
                "KHR_materials_common": {
                    "technique": "LAMBERT",
                    "values": {
                        "ambient": [
                            1.0,
                            1.0,
                            1.0,
                            1.0
                        ],
                        "diffuse": "texture_Texture",
                        "doubleSided": false,
                        "emission": [
                            0.0,
                            0.0,
                            0.0,
                            1.0
                        ],
                        "shininess": 49,
                        "specular": [
                            0.0,
                            0.0,
                            0.0,
                            1.0
                        ],
                        "transparency": 1.0,
                        "transparent": false
                    }
                }
            },
            "name": "lambert3.003"
        }
    },
    "meshes": {
        "mesh_Untitled.002": {
            "name": "Untitled.002",
            "primitives": [
                {
                    "attributes": {
                        "COLOR_0": "accessor_buffer_Untitled.002_3",
                        "NORMAL": "accessor_buffer_Untitled.002_1",
                        "POSITION": "accessor_buffer_Untitled.002_0",
                        "TEXCOORD_0": "accessor_buffer_Untitled.002_2"
                    },
                    "indices": "accessor_buffer_Untitled.002_4",
                    "material": "material_lambert3.003",
                    "mode": 4
                }
            ]
        }
    },
    "nodes": {
        "node_old_transparent": {
            "children": [],
            "matrix": [
                1.0,
                0.0,
                0.0,
                0.0,
                0.0,
                -1.6292068494294654e-07,
                1.0,
                0.0,
                0.0,
                -1.0,
                -1.6292068494294654e-07,
                0.0,
                0.0,
                0.0,
                0.0,
                1.0
            ],
            "meshes": [
                "mesh_Untitled.002"
            ],
            "name": "old_transparent"
        },
        "node_scene_Scene_root": {
            "children": [
                "node_old_transparent"
            ],
            "matrix": [
                1.0,
                0.0,
                0.0,
                0.0,
                0.0,
                0.0,
                -1.0,
                0.0,
                0.0,
                1.0,
                0.0,
                0.0,
                0.0,
                0.0,
                0.0,
                1.0
            ],
            "name": "node_scene_Scene_root"
        }
    },
    "samplers": {
        "sampler_default": {}
    },
    "scene": "scene_Scene",
    "scenes": {
        "scene_Scene": {
            "extras": {
                "active_camera": "camera_Camera",
                "background_color": [
                    40.5,
                    40.5,
                    40.5
                ],
                "frames_per_second": 24
            },
            "name": "Scene",
            "nodes": [
                "node_scene_Scene_root"
            ]
        }
    },
    "textures": {
        "texture_Texture": {
            "format": 6408,
            "internalFormat": 6408,
            "sampler": "sampler_default",
            "source": "image_world-RGBA.png"
        }
    }
}
